HIERARCHY
ROOT Hips
{
 OFFSET 0.000000 0.000000 0.000000
 CHANNELS 6 Xposition Yposition Zposition Yrotation Xrotation Zrotation
 JOINT Chest
 {
  OFFSET 0.000000 9.585900 0.002600
  CHANNELS 3 Yrotation Xrotation Zrotation
  JOINT Chest2
  {
   OFFSET 0.000000 9.601200 -0.005300
   CHANNELS 3 Yrotation Xrotation Zrotation
   JOINT Chest3
   {
    OFFSET 0.000000 9.561800 0.000000
    CHANNELS 3 Yrotation Xrotation Zrotation
    JOINT Chest4
    {
     OFFSET 0.000000 9.552100 0.000000
     CHANNELS 3 Yrotation Xrotation Zrotation
     JOINT Neck
     {
      OFFSET 0.000000 14.453000 0.000000
      CHANNELS 3 Yrotation Xrotation Zrotation
      JOINT Head
      {
       OFFSET 0.000000 8.936500 -0.011300
       CHANNELS 3 Yrotation Xrotation Zrotation
       End Site
       {
        OFFSET 0.000000 17.073600 -0.006000
       }
      }
     }
     JOINT RightCollar
     {
      OFFSET -2.921100 9.558500 0.000000
      CHANNELS 3 Yrotation Xrotation Zrotation
      JOINT RightShoulder
      {
       OFFSET -13.519700 0.000000 0.000000
       CHANNELS 3 Yrotation Xrotation Zrotation
       JOINT RightElbow
       {
        OFFSET 0.000000 -29.696600 0.000000
        CHANNELS 3 Yrotation Xrotation Zrotation
        JOINT RightWrist
        {
         OFFSET 0.000000 -24.004700 0.000000
         CHANNELS 3 Yrotation Xrotation Zrotation
         End Site
         {
          OFFSET 0.000000 -17.728500 0.000000
         }
        }
       }
      }
     }
     JOINT LeftCollar
     {
      OFFSET 2.921100 9.558500 0.000000
      CHANNELS 3 Yrotation Xrotation Zrotation
      JOINT LeftShoulder
      {
       OFFSET 13.519700 0.000000 0.000000
       CHANNELS 3 Yrotation Xrotation Zrotation
       JOINT LeftElbow
       {
        OFFSET 0.000000 -29.696600 0.000000
        CHANNELS 3 Yrotation Xrotation Zrotation
        JOINT LeftWrist
        {
         OFFSET 0.000000 -24.004700 0.000000
         CHANNELS 3 Yrotation Xrotation Zrotation
         End Site
         {
          OFFSET 0.000000 -17.728500 0.000000
         }
        }
       }
      }
     }
    }
   }
  }
 }
 JOINT RightHip
 {
  OFFSET -7.771700 -0.012900 -0.001300
  CHANNELS 3 Yrotation Xrotation Zrotation
  JOINT RightKnee
  {
   OFFSET 0.000000 -40.869800 0.001200
   CHANNELS 3 Yrotation Xrotation Zrotation
   JOINT RightAnkle
   {
    OFFSET 0.000000 -39.717900 0.002100
    CHANNELS 3 Yrotation Xrotation Zrotation
    JOINT RightToe
    {
     OFFSET 0.000000 -4.965400 11.033500
     CHANNELS 3 Yrotation Xrotation Zrotation
     End Site
     {
      OFFSET 0.000000 -1.423100 5.872300
     }
    }
   }
  }
 }
 JOINT LeftHip
 {
  OFFSET 7.771700 -0.012900 -0.001300
  CHANNELS 3 Yrotation Xrotation Zrotation
  JOINT LeftKnee
  {
   OFFSET 0.000000 -40.869800 0.001200
   CHANNELS 3 Yrotation Xrotation Zrotation
   JOINT LeftAnkle
   {
    OFFSET 0.000000 -39.717900 0.002100
    CHANNELS 3 Yrotation Xrotation Zrotation
    JOINT LeftToe
    {
     OFFSET 0.000000 -4.965400 11.033500
     CHANNELS 3 Yrotation Xrotation Zrotation
     End Site
     {
      OFFSET 0.000000 -1.423100 5.872300
     }
    }
   }
  }
 }
}
MOTION
Frames: 8
Frame Time: 0.008333
0.000000 85.388000 0.000000 0.000000 -5.767877 0.000000 0.000000 11.653817 0.000000 0.000000 -5.885947 0.000000 0.000000 -0.000000 0.000000 0.000000 -0.000000 0.000000 0.000000 12.528835 0.000000 0.000000 0.711642 0.000000 0.000000 -0.000000 0.000000 0.000000 0.000000 -90.000000 0.000000 -2.309062 0.000000 0.000000 2.309062 0.000000 0.000000 -0.000000 0.000000 0.000000 -0.000000 90.000000 0.000000 -2.309062 0.000000 0.000000 2.309062 0.000000 0.000000 8.520406 0.000000 0.000000 1.905762 0.000000 -0.000000 -4.658285 0.000000 0.000000 -0.000000 0.000000 0.000000 8.520406 0.000000 0.000000 1.905762 0.000000 -0.000000 -4.658285 0.000000 0.000000 -0.000000 0.000000
-31.959130 50.576310 19.666078 164.589919 -5.760071 -0.046637 2.793967 5.761969 0.547113 0.102852 0.220215 -0.013360 0.183731 0.394639 -0.021699 2.583891 5.570070 -0.192822 2.510519 18.854569 0.565983 4.407103 -0.751477 0.251016 1.853282 6.037231 0.292359 -6.863628 -10.351154 -6.651216 -21.319241 -75.077938 44.106390 -3.389557 -1.517084 -34.765535 -4.543611 1.891833 0.050213 19.606865 -5.750559 2.539259 35.359916 -70.527951 -58.300548 2.224707 6.016010 17.533276 -11.394242 -73.908784 3.559239 -137.014055 81.679033 -134.582583 -3.586309 -17.701293 -2.027675 -0.326626 0.773305 -0.145798 -3.987060 -79.128870 22.632097 101.224572 77.727585 97.142391 -15.182607 -23.189753 1.572557 -0.277270 -1.138784 -0.120944
-31.957884 50.576560 19.666842 164.593836 -5.754158 -0.048176 2.791716 5.759813 0.549006 0.103745 0.220363 -0.013346 0.183898 0.394768 -0.021595 2.589978 5.583205 -0.185721 2.498900 18.850394 0.563749 4.403004 -0.759245 0.246181 1.853828 6.031285 0.288314 -6.879387 -10.349152 -6.648385 -21.315946 -75.090322 44.101602 -3.391165 -1.522746 -34.769786 -4.532101 1.913553 0.058976 19.611517 -5.768605 2.521935 35.381045 -70.532255 -58.312873 2.226636 6.010986 17.541757 -11.398316 -73.915898 3.561653 -137.024512 81.676615 -134.590497 -3.584922 -17.696505 -2.031277 -0.324268 0.766585 -0.143692 -4.007275 -79.132940 22.654319 101.204026 77.728860 97.117028 -15.189548 -23.180089 1.574280 -0.308027 -1.136029 -0.126537
-31.956644 50.576923 19.666922 164.590488 -5.751046 -0.047467 2.795703 5.760458 0.549518 0.109022 0.230217 -0.008741 0.179375 0.389126 -0.025285 2.588770 5.577720 -0.187390 2.494721 18.859275 0.566921 4.390777 -0.756026 0.250247 1.864508 6.039205 0.290750 -6.894052 -10.353491 -6.646370 -21.309680 -75.091610 44.091204 -3.399281 -1.527158 -34.784217 -4.523757 1.929067 0.064518 19.616401 -5.776280 2.515038 35.404777 -70.542320 -58.270625 2.226135 6.015232 17.509737 -11.395539 -73.920281 3.563574 -137.028580 81.674803 -134.593184 -3.586967 -17.692980 -2.032591 -0.324602 0.761327 -0.143741 -4.005846 -79.135196 22.659715 101.195936 77.730945 97.106927 -15.185291 -23.170984 1.571983 -0.284670 -1.136345 -0.122136
-31.955483 50.577199 19.668649 164.594482 -5.737159 -0.050083 2.799303 5.759897 0.557665 0.104322 0.224179 -0.012264 0.183802 0.394810 -0.021343 2.584667 5.568876 -0.186856 2.485754 18.862898 0.565440 4.374928 -0.749503 0.250637 1.866185 6.040444 0.284669 -6.903074 -10.353342 -6.643186 -21.303282 -75.088766 44.073439 -3.402638 -1.534626 -34.778732 -4.515631 1.938993 0.060849 19.619635 -5.781111 2.512553 35.425496 -70.550345 -58.265490 2.227117 6.018039 17.502727 -11.436638 -73.933078 3.602927 -137.002759 81.673070 -134.571455 -3.589690 -17.689123 -2.034639 -0.317362 0.757562 -0.142391 -4.023972 -79.147984 22.678609 101.159570 77.718946 97.067421 -15.194681 -23.160691 1.570124 -0.272480 -1.125634 -0.120152
-31.954090 50.577586 19.670124 164.606855 -5.724228 -0.055646 2.789681 5.754419 0.562810 0.104401 0.224184 -0.012238 0.183993 0.394822 -0.021261 2.584347 5.568958 -0.186200 2.478361 18.868530 0.566645 4.363979 -0.751372 0.251078 1.868838 6.037068 0.282532 -6.908496 -10.338650 -6.635770 -21.328994 -75.097993 44.093371 -3.404211 -1.536291 -34.777945 -4.504723 1.942875 0.060782 19.630947 -5.773201 2.512103 35.462043 -70.566970 -58.285133 2.225073 6.024887 17.471055 -11.490116 -73.944040 3.643315 -137.010053 81.670894 -134.582988 -3.581376 -17.686088 -2.031535 -0.321800 0.752592 -0.147504 -4.062024 -79.157665 22.711093 101.097097 77.702357 97.003652 -15.223330 -23.152099 1.562841 -0.262609 -1.117367 -0.112742
-31.954025 50.578108 19.670651 164.613939 -5.714191 -0.053161 2.783706 5.748152 0.559555 0.107183 0.226941 -0.013170 0.184052 0.394863 -0.021146 2.591181 5.576295 -0.181572 2.465007 18.859260 0.563569 4.345964 -0.745408 0.253692 1.868154 6.036447 0.285486 -6.909958 -10.343275 -6.637041 -21.324437 -75.084270 44.077248 -3.406246 -1.547554 -34.769809 -4.505647 1.938308 0.059964 19.665493 -5.744861 2.510048 35.508026 -70.597043 -58.346794 2.219851 6.028153 17.472419 -11.513428 -73.953022 3.656339 -137.006004 81.668293 -134.581973 -3.576749 -17.689259 -2.033763 -0.320699 0.754222 -0.147227 -3.999566 -79.165554 22.650358 101.043363 77.707335 96.955087 -15.236787 -23.150952 1.559725 -0.269262 -1.105248 -0.108384
-31.953310 50.578774 19.670712 164.616220 -5.707855 -0.054919 2.783321 5.745195 0.560404 0.110859 0.228703 -0.014249 0.184000 0.394871 -0.021051 2.590255 5.576577 -0.179972 2.458711 18.860732 0.564826 4.317939 -0.736649 0.255976 1.866389 6.032532 0.286848 -6.905076 -10.337686 -6.635505 -21.320463 -75.084653 44.065555 -3.415327 -1.547916 -34.763759 -4.506121 1.936705 0.061228 19.689952 -5.726597 2.507604 35.526567 -70.614835 -58.384955 2.229876 6.035044 17.531809 -11.547609 -73.956536 3.685363 -136.989763 81.667383 -134.569798 -3.569813 -17.690202 -2.036006 -0.322930 0.754431 -0.147651 -4.003358 -79.170595 22.653530 101.025861 77.707448 96.937345 -15.227249 -23.145680 1.555226 -0.285165 -1.104797 -0.109740
